<svg id="visual" viewBox="0 0 900 600" width="900" height="600" xmlns="http://www.w3.org/2000/svg" xmlns:xlink="http://www.w3.org/1999/xlink" version="1.1"><rect x="0" y="0" width="900" height="600" fill="#fff"></rect><path d="M0 257L37.5 271C75 285 150 313 225 323.7C300 334.3 375 327.7 450 310.8C525 294 600 267 675 257.7C750 248.3 825 256.7 862.5 260.8L900 265L900 601L862.5 601C825 601 750 601 675 601C600 601 525 601 450 601C375 601 300 601 225 601C150 601 75 601 37.5 601L0 601Z" fill="#1ebaa3" stroke-linecap="round" stroke-linejoin="miter"></path></svg>